<?xml version="1.0" encoding="UTF-8" standalone="no"?>
<!-- Created with Inkscape (http://www.inkscape.org/) -->

<svg
   xmlns:dc="http://purl.org/dc/elements/1.1/"
   xmlns:cc="http://creativecommons.org/ns#"
   xmlns:rdf="http://www.w3.org/1999/02/22-rdf-syntax-ns#"
   xmlns:svg="http://www.w3.org/2000/svg"
   xmlns="http://www.w3.org/2000/svg"
   xmlns:sodipodi="http://sodipodi.sourceforge.net/DTD/sodipodi-0.dtd"
   xmlns:inkscape="http://www.inkscape.org/namespaces/inkscape"
   width="3000"
   height="2000"
   viewBox="0 0 793.74998 529.16666"
   version="1.1"
   id="svg8"
   inkscape:version="0.92.4 5da689c313, 2019-01-14"
   sodipodi:docname="2019-0715 - Flag.svg"
   inkscape:export-filename="K:\1.0 Tony Vault\New Staffordshire\Flag\Flag-New.png"
   inkscape:export-xdpi="95.994354"
   inkscape:export-ydpi="95.994354">
  <defs
     id="defs2">
    <marker
       id="Arrow2Sstart"
       inkscape:isstock="true"
       inkscape:stockid="Arrow2Sstart"
       orient="auto"
       refX="0"
       refY="0"
       style="overflow:visible">
      <path
         d="M 8.72,4.03 -2.21,0.02 8.72,-4 c -1.75,2.37 -1.74,5.62 0,8.03 z"
         id="Arrow2SstartPath"
         style="fill:#000000;fill-opacity:1;stroke:#000000;stroke-opacity:1"
         transform="matrix(0.3,0,0,0.3,-0.69,0)"
         inkscape:connector-curvature="0" />
    </marker>
    <marker
       id="Arrow2Send"
       inkscape:isstock="true"
       inkscape:stockid="Arrow2Send"
       orient="auto"
       refX="0"
       refY="0"
       style="overflow:visible">
      <path
         d="M 8.72,4.03 -2.21,0.02 8.72,-4 c -1.75,2.37 -1.74,5.62 0,8.03 z"
         id="Arrow2SendPath"
         style="fill:#000000;fill-opacity:1;stroke:#000000;stroke-opacity:1"
         transform="matrix(-0.3,0,0,-0.3,0.69,0)"
         inkscape:connector-curvature="0" />
    </marker>
    <clipPath
       clipPathUnits="userSpaceOnUse"
       id="clipPath4851">
      <rect
         style="fill:none;fill-opacity:1;stroke-width:0.26458332"
         id="rect4853"
         width="793.25598"
         height="529.19366"
         x="1.0690757"
         y="-231.12457"
         transform="rotate(90)" />
    </clipPath>
    <clipPath
       clipPathUnits="userSpaceOnUse"
       id="clipPath4855">
      <rect
         style="fill:none;fill-opacity:1;stroke-width:0.06814571"
         id="rect4857"
         width="154.59827"
         height="180.12561"
         x="135.37326"
         y="-446.12988"
         transform="rotate(86.6)" />
    </clipPath>
    <clipPath
       clipPathUnits="userSpaceOnUse"
       id="clipPath4859">
      <rect
         style="fill:none;fill-opacity:1;stroke-width:0.26458332"
         id="rect4861"
         width="793.25598"
         height="529.19366"
         x="1.0690757"
         y="-231.12457" />
    </clipPath>
    <clipPath
       clipPathUnits="userSpaceOnUse"
       id="clipPath4863">
      <rect
         style="fill:none;fill-opacity:1;stroke-width:0.06814571"
         id="rect4865"
         width="154.59827"
         height="180.12561"
         x="135.11678"
         y="-371.2074"
         transform="rotate(86.6)" />
    </clipPath>
    <clipPath
       clipPathUnits="userSpaceOnUse"
       id="clipPath4867">
      <rect
         style="fill:none;fill-opacity:1;stroke-width:0.26458332"
         id="rect4869"
         width="793.25598"
         height="529.19366"
         x="1.0690757"
         y="-231.12457" />
    </clipPath>
    <clipPath
       clipPathUnits="userSpaceOnUse"
       id="clipPath836">
      <rect
         style="fill:none;fill-opacity:1"
         id="rect838"
         width="111.14515"
         height="122.34942"
         x="513.15039"
         y="178.38409" />
    </clipPath>
  </defs>
  <sodipodi:namedview
     id="base"
     pagecolor="#ffffff"
     bordercolor="#666666"
     borderopacity="1.0"
     inkscape:pageopacity="0.0"
     inkscape:pageshadow="2"
     inkscape:zoom="0.35"
     inkscape:cx="953.46333"
     inkscape:cy="976.32859"
     inkscape:document-units="mm"
     inkscape:current-layer="layer1"
     showgrid="false"
     units="px"
     inkscape:snap-global="true"
     inkscape:measure-start="362.857,332.857"
     inkscape:measure-end="1494.29,332.857"
     inkscape:snap-grids="true"
     inkscape:snap-to-guides="true"
     inkscape:snap-page="true"
     inkscape:snap-center="true"
     inkscape:window-width="1920"
     inkscape:window-height="1023"
     inkscape:window-x="0"
     inkscape:window-y="0"
     inkscape:window-maximized="1" />
  <metadata
     id="metadata5">
    <rdf:RDF>
      <cc:Work
         rdf:about="">
        <dc:format>image/svg+xml</dc:format>
        <dc:type
           rdf:resource="http://purl.org/dc/dcmitype/StillImage" />
        <dc:title></dc:title>
      </cc:Work>
    </rdf:RDF>
  </metadata>
  <g
     inkscape:label="Layer 1"
     inkscape:groupmode="layer"
     id="layer1"
     transform="translate(0,232.16664)">
    <rect
       style="fill:#d4aa00;fill-opacity:1;stroke-width:0.75;stroke:#000000;stroke-opacity:1;stroke-miterlimit:4;stroke-dasharray:none;opacity:1"
       id="rect815"
       width="793.25598"
       height="529.19366"
       x="1.0690757"
       y="-231.12457"
       clip-path="url(#clipPath4867)" />
    <g
       id="g4921"
       transform="matrix(0.83333332,0,0,0.94086019,38.996401,16.519982)"
       style="opacity:1;fill:#000080;stroke:#000000;stroke-width:0;stroke-miterlimit:4;stroke-dasharray:none;stroke-opacity:1">
      <rect
         y="-263.91663"
         x="140.60715"
         height="562.42859"
         width="190.5"
         id="rect4905"
         style="fill:#000080;fill-opacity:1;stroke:#000000;stroke-width:0;stroke-miterlimit:4;stroke-dasharray:none;stroke-opacity:1" />
    </g>
    <path
       style="fill:#aa0000;fill-opacity:1;stroke-width:0;stroke:#000000;stroke-opacity:1;stroke-miterlimit:4;stroke-dasharray:none;opacity:1"
       d="M 6.4127803,1641.2037 6.773435,1280.5793 451.89006,841.2735 897.00667,401.96775 1074.7935,578.9179 c 97.7828,97.32258 459.5838,457.2912 804.0024,799.9302 l 626.2155,622.9801 H 2087.5186 1670.0257 L 1281.7774,1615.856 c -213.5365,-212.2846 -389.45578,-385.4753 -390.93165,-384.8681 -1.47587,0.6073 -177.85926,174.2947 -391.96311,385.9722 l -389.2797,384.8681 H 57.82753 6.0521251 Z"
       id="path4871"
       inkscape:connector-curvature="0"
       transform="matrix(0.26458333,0,0,0.26458333,0,-232.16664)" />
    <path
       d="m 150,180 11,41 41,-11 -30,30 30,30 -41,-11 -11,41 -11,-41 -41,11 30,-30 -30,-30 41,11 z m 140,0 11,41 41,-11 -30,30 30,30 -41,-11 -11,41 -11,-41 -41,11 30,-30 -30,-30 41,11 z m 140,0 11,41 41,-11 -30,30 30,30 -41,-11 -11,41 -11,-41 -41,11 30,-30 -30,-30 41,11 z m 140,0 11,41 41,-11 -30,30 30,30 -41,-11 -11,41 -11,-41 -41,11 30,-30 -30,-30 41,11 z"
       id="path4"
       clip-path="url(#clipPath836)"
       inkscape:connector-curvature="0"
       transform="matrix(1.8935133,0,0,1.8935133,-471.54464,-519.57968)"
       style="fill:#aa0000;stroke:#000000;stroke-opacity:1;stroke-width:0;stroke-miterlimit:4;stroke-dasharray:none;opacity:1" />
    <rect
       style="opacity:1;fill:none;fill-opacity:1;stroke:#000000;stroke-width:0;stroke-linejoin:miter;stroke-miterlimit:4;stroke-dasharray:none;stroke-dashoffset:0;stroke-opacity:1"
       id="rect6793"
       width="792.72375"
       height="528.60828"
       x="1.6012914"
       y="-231.12457" />
  </g>
</svg>
